<?xml version="1.0" encoding="utf-8" ?>
<svg baseProfile="full" height="1024" version="1.1" width="1024" xmlns="http://www.w3.org/2000/svg" xmlns:ev="http://www.w3.org/2001/xml-events" xmlns:xlink="http://www.w3.org/1999/xlink"><defs><radialGradient cx="50%" cy="50%" id="bgGradient" r="65%"><stop offset="0" stop-color="#2b1055" /><stop offset="1" stop-color="#7597de" /></radialGradient></defs><rect fill="url(#bgGradient)" height="1024" width="1024" x="0" y="0" /><circle cx="512.0" cy="512.0" fill="white" fill-opacity="0.08" r="140" stroke="white" stroke-width="1.5" /><circle cx="512.0" cy="512.0" fill="none" r="160" stroke="cyan" stroke-opacity="0.3" stroke-width="4" /><rect fill="#ffd166" fill-opacity="0.95" height="96" rx="20" ry="20" width="96" x="764.0" y="464.0" /><text fill="#ffffff" font-family="Helvetica" font-size="64px" font-weight="bold" text-anchor="middle" x="812.0" y="542.0">A</text><rect fill="#ef476f" fill-opacity="0.95" height="96" rx="20" ry="20" width="96" x="652.7961173149513" y="697.1437884370913" /><text fill="#ffffff" font-family="Helvetica" font-size="64px" font-weight="bold" text-anchor="middle" x="700.7961173149513" y="775.1437884370913">N</text><rect fill="#ffd166" fill-opacity="0.95" height="96" rx="20" ry="20" width="96" x="401.6264927546722" y="757.4442802201418" /><text fill="#ffffff" font-family="Helvetica" font-size="64px" font-weight="bold" text-anchor="middle" x="449.6264927546722" y="835.4442802201418">A</text><rect fill="#06d6a0" fill-opacity="0.95" height="96" rx="20" ry="20" width="96" x="196.69804274348968" y="600.197149921864" /><text fill="#ffffff" font-family="Helvetica" font-size="64px" font-weight="bold" text-anchor="middle" x="244.69804274348968" y="678.197149921864">G</text><rect fill="#118ab2" fill-opacity="0.95" height="96" rx="20" ry="20" width="96" x="189.93636270721976" y="341.97900707725995" /><text fill="#ffffff" font-family="Helvetica" font-size="64px" font-weight="bold" text-anchor="middle" x="237.93636270721976" y="419.97900707725995">R</text><rect fill="#ffd166" fill-opacity="0.95" height="96" rx="20" ry="20" width="96" x="386.3542864692438" y="174.22225211327952" /><text fill="#ffffff" font-family="Helvetica" font-size="64px" font-weight="bold" text-anchor="middle" x="434.3542864692438" y="252.22225211327952">A</text><rect fill="#8338ec" fill-opacity="0.95" height="96" rx="20" ry="20" width="96" x="640.3355756877419" y="221.29490168751573" /><text fill="#ffffff" font-family="Helvetica" font-size="64px" font-weight="bold" text-anchor="middle" x="688.3355756877419" y="299.29490168751573">M</text></svg>